<mxfile host="65bd71144e">
    <diagram id="aICu7FfH1qFZZELdNOrP" name="Page-1">
        <mxGraphModel dx="-3804" dy="1580" grid="1" gridSize="10" guides="1" tooltips="1" connect="1" arrows="1" fold="1" page="1" pageScale="1" pageWidth="850" pageHeight="1100" math="0" shadow="0">
            <root>
                <mxCell id="0"/>
                <mxCell id="1" parent="0"/>
                <mxCell id="2" value="" style="group" parent="1" vertex="1" connectable="0">
                    <mxGeometry x="5195" y="365.48999999999995" width="80" height="80" as="geometry"/>
                </mxCell>
                <mxCell id="3" value="" style="ellipse;whiteSpace=wrap;html=1;aspect=fixed;fillColor=#67AB9F;strokeWidth=4;strokeColor=#000000;" parent="2" vertex="1">
                    <mxGeometry width="61.53846153846153" height="61.53846153846153" as="geometry"/>
                </mxCell>
                <mxCell id="4" value="" style="endArrow=none;html=1;rounded=0;strokeColor=#000000;strokeWidth=4;exitX=0;exitY=0;exitDx=0;exitDy=0;entryX=1;entryY=1;entryDx=0;entryDy=0;" parent="2" source="3" target="3" edge="1">
                    <mxGeometry width="50" height="50" relative="1" as="geometry">
                        <mxPoint x="31.56000000000131" y="63.5" as="sourcePoint"/>
                        <mxPoint x="81.56000000000131" y="1" as="targetPoint"/>
                    </mxGeometry>
                </mxCell>
                <mxCell id="5" value="" style="endArrow=none;html=1;rounded=0;strokeColor=#000000;strokeWidth=4;exitX=0;exitY=1;exitDx=0;exitDy=0;entryX=1;entryY=0;entryDx=0;entryDy=0;" parent="2" source="3" target="3" edge="1">
                    <mxGeometry width="50" height="50" relative="1" as="geometry">
                        <mxPoint x="-56.72427124745991" y="-46.855339059327434" as="sourcePoint"/>
                        <mxPoint x="0.1829682352108648" y="23.426836239393197" as="targetPoint"/>
                    </mxGeometry>
                </mxCell>
                <mxCell id="6" value="" style="group" parent="1" vertex="1" connectable="0">
                    <mxGeometry x="5300" y="475.49" width="60" height="60" as="geometry"/>
                </mxCell>
                <mxCell id="7" value="" style="ellipse;whiteSpace=wrap;html=1;aspect=fixed;fillColor=#e1d5e7;strokeColor=#000000;strokeWidth=4;" parent="6" vertex="1">
                    <mxGeometry x="-5" width="60" height="60" as="geometry"/>
                </mxCell>
                <mxCell id="8" value="" style="endArrow=none;html=1;rounded=0;strokeColor=#000000;entryX=0.5;entryY=0;entryDx=0;entryDy=0;exitX=0.5;exitY=1;exitDx=0;exitDy=0;strokeWidth=4;" parent="6" source="7" target="7" edge="1">
                    <mxGeometry width="50" height="50" relative="1" as="geometry">
                        <mxPoint x="41.11499999999978" y="-55.51500000000016" as="sourcePoint"/>
                        <mxPoint x="116.11499999999978" y="-130.51500000000016" as="targetPoint"/>
                    </mxGeometry>
                </mxCell>
                <mxCell id="9" value="" style="endArrow=none;html=1;rounded=0;strokeColor=#000000;entryX=0;entryY=0.5;entryDx=0;entryDy=0;exitX=1;exitY=0.5;exitDx=0;exitDy=0;strokeWidth=4;" parent="6" source="7" target="7" edge="1">
                    <mxGeometry width="50" height="50" relative="1" as="geometry">
                        <mxPoint x="116.11499999999978" y="-205.51500000000016" as="sourcePoint"/>
                        <mxPoint x="116.11499999999978" y="-295.5150000000001" as="targetPoint"/>
                    </mxGeometry>
                </mxCell>
                <mxCell id="10" value="I0" style="whiteSpace=wrap;html=1;aspect=fixed;strokeWidth=3;fontSize=50;fontStyle=1;fillColor=#FFFFCC;" parent="1" vertex="1">
                    <mxGeometry x="5135" y="242.09" width="90" height="90" as="geometry"/>
                </mxCell>
                <mxCell id="11" style="edgeStyle=none;html=1;exitX=0.5;exitY=0;exitDx=0;exitDy=0;entryX=0;entryY=0;entryDx=0;entryDy=0;startArrow=none;startFill=0;endArrow=classic;endFill=1;strokeColor=#000000;strokeWidth=5;" parent="1" source="12" target="3" edge="1">
                    <mxGeometry relative="1" as="geometry"/>
                </mxCell>
                <mxCell id="12" value="" style="rounded=0;whiteSpace=wrap;html=1;fontSize=50;fontColor=#000000;strokeColor=#000000;strokeWidth=6;fillColor=#000000;rotation=-180;" parent="1" vertex="1">
                    <mxGeometry x="5165" y="330.18" width="30" height="11" as="geometry"/>
                </mxCell>
                <mxCell id="13" value="W0" style="whiteSpace=wrap;html=1;aspect=fixed;fillColor=#e1d5e7;strokeWidth=3;fontSize=50;fontStyle=1" parent="1" vertex="1">
                    <mxGeometry x="5225" y="242.49" width="90" height="90" as="geometry"/>
                </mxCell>
                <mxCell id="14" style="edgeStyle=none;html=1;entryX=1;entryY=0;entryDx=0;entryDy=0;startArrow=none;startFill=0;endArrow=classic;endFill=1;strokeColor=#000000;strokeWidth=5;" parent="1" source="15" target="3" edge="1">
                    <mxGeometry relative="1" as="geometry"/>
                </mxCell>
                <mxCell id="15" value="" style="rounded=0;whiteSpace=wrap;html=1;fontSize=50;fontColor=#000000;strokeColor=#000000;strokeWidth=6;fillColor=#000000;rotation=-180;" parent="1" vertex="1">
                    <mxGeometry x="5255" y="332.49000000000007" width="30" height="11" as="geometry"/>
                </mxCell>
                <mxCell id="16" value="" style="group" parent="1" vertex="1" connectable="0">
                    <mxGeometry x="5395" y="365.89" width="80" height="80" as="geometry"/>
                </mxCell>
                <mxCell id="17" value="" style="ellipse;whiteSpace=wrap;html=1;aspect=fixed;fillColor=#67AB9F;strokeWidth=4;strokeColor=#000000;" parent="16" vertex="1">
                    <mxGeometry width="61.53846153846153" height="61.53846153846153" as="geometry"/>
                </mxCell>
                <mxCell id="18" value="" style="endArrow=none;html=1;rounded=0;strokeColor=#000000;strokeWidth=4;exitX=0;exitY=0;exitDx=0;exitDy=0;entryX=1;entryY=1;entryDx=0;entryDy=0;" parent="16" source="17" target="17" edge="1">
                    <mxGeometry width="50" height="50" relative="1" as="geometry">
                        <mxPoint x="31.56000000000131" y="63.5" as="sourcePoint"/>
                        <mxPoint x="81.56000000000131" y="1" as="targetPoint"/>
                    </mxGeometry>
                </mxCell>
                <mxCell id="19" value="" style="endArrow=none;html=1;rounded=0;strokeColor=#000000;strokeWidth=4;exitX=0;exitY=1;exitDx=0;exitDy=0;entryX=1;entryY=0;entryDx=0;entryDy=0;" parent="16" source="17" target="17" edge="1">
                    <mxGeometry width="50" height="50" relative="1" as="geometry">
                        <mxPoint x="-56.72427124745991" y="-46.855339059327434" as="sourcePoint"/>
                        <mxPoint x="0.1829682352108648" y="23.426836239393197" as="targetPoint"/>
                    </mxGeometry>
                </mxCell>
                <mxCell id="20" value="I1" style="whiteSpace=wrap;html=1;aspect=fixed;strokeWidth=3;fontSize=50;fontStyle=1;fillColor=#FFFFCC;" parent="1" vertex="1">
                    <mxGeometry x="5335" y="242.49" width="90" height="90" as="geometry"/>
                </mxCell>
                <mxCell id="21" style="edgeStyle=none;html=1;exitX=0.5;exitY=0;exitDx=0;exitDy=0;entryX=0;entryY=0;entryDx=0;entryDy=0;startArrow=none;startFill=0;endArrow=classic;endFill=1;strokeColor=#000000;strokeWidth=5;" parent="1" source="22" target="17" edge="1">
                    <mxGeometry relative="1" as="geometry"/>
                </mxCell>
                <mxCell id="22" value="" style="rounded=0;whiteSpace=wrap;html=1;fontSize=50;fontColor=#000000;strokeColor=#000000;strokeWidth=6;fillColor=#000000;rotation=-180;" parent="1" vertex="1">
                    <mxGeometry x="5365" y="330.58000000000004" width="30" height="11" as="geometry"/>
                </mxCell>
                <mxCell id="23" value="W1" style="whiteSpace=wrap;html=1;aspect=fixed;fillColor=#e1d5e7;strokeWidth=3;fontSize=50;fontStyle=1" parent="1" vertex="1">
                    <mxGeometry x="5425" y="242.89000000000001" width="90" height="90" as="geometry"/>
                </mxCell>
                <mxCell id="24" style="edgeStyle=none;html=1;entryX=1;entryY=0;entryDx=0;entryDy=0;startArrow=none;startFill=0;endArrow=classic;endFill=1;strokeColor=#000000;strokeWidth=5;" parent="1" source="25" target="17" edge="1">
                    <mxGeometry relative="1" as="geometry"/>
                </mxCell>
                <mxCell id="25" value="" style="rounded=0;whiteSpace=wrap;html=1;fontSize=50;fontColor=#000000;strokeColor=#000000;strokeWidth=6;fillColor=#000000;rotation=-180;" parent="1" vertex="1">
                    <mxGeometry x="5455" y="332.89000000000004" width="30" height="11" as="geometry"/>
                </mxCell>
                <mxCell id="26" style="edgeStyle=none;html=1;entryX=0.137;entryY=0.226;entryDx=0;entryDy=0;entryPerimeter=0;startArrow=none;startFill=0;endArrow=classic;endFill=1;strokeColor=#000000;strokeWidth=5;" parent="1" source="3" target="7" edge="1">
                    <mxGeometry relative="1" as="geometry"/>
                </mxCell>
                <mxCell id="27" style="edgeStyle=none;html=1;entryX=1;entryY=0;entryDx=0;entryDy=0;startArrow=none;startFill=0;endArrow=classic;endFill=1;strokeColor=#000000;strokeWidth=5;" parent="1" source="17" target="7" edge="1">
                    <mxGeometry relative="1" as="geometry"/>
                </mxCell>
                <mxCell id="28" value="" style="group" parent="1" vertex="1" connectable="0">
                    <mxGeometry x="5595" y="366.40999999999997" width="80" height="80" as="geometry"/>
                </mxCell>
                <mxCell id="29" value="" style="ellipse;whiteSpace=wrap;html=1;aspect=fixed;fillColor=#67AB9F;strokeWidth=4;strokeColor=#000000;" parent="28" vertex="1">
                    <mxGeometry width="61.53846153846153" height="61.53846153846153" as="geometry"/>
                </mxCell>
                <mxCell id="30" value="" style="endArrow=none;html=1;rounded=0;strokeColor=#000000;strokeWidth=4;exitX=0;exitY=0;exitDx=0;exitDy=0;entryX=1;entryY=1;entryDx=0;entryDy=0;" parent="28" source="29" target="29" edge="1">
                    <mxGeometry width="50" height="50" relative="1" as="geometry">
                        <mxPoint x="31.56000000000131" y="63.5" as="sourcePoint"/>
                        <mxPoint x="81.56000000000131" y="1" as="targetPoint"/>
                    </mxGeometry>
                </mxCell>
                <mxCell id="31" value="" style="endArrow=none;html=1;rounded=0;strokeColor=#000000;strokeWidth=4;exitX=0;exitY=1;exitDx=0;exitDy=0;entryX=1;entryY=0;entryDx=0;entryDy=0;" parent="28" source="29" target="29" edge="1">
                    <mxGeometry width="50" height="50" relative="1" as="geometry">
                        <mxPoint x="-56.72427124745991" y="-46.855339059327434" as="sourcePoint"/>
                        <mxPoint x="0.1829682352108648" y="23.426836239393197" as="targetPoint"/>
                    </mxGeometry>
                </mxCell>
                <mxCell id="32" value="" style="group" parent="1" vertex="1" connectable="0">
                    <mxGeometry x="5700" y="476.41" width="60" height="60" as="geometry"/>
                </mxCell>
                <mxCell id="33" value="" style="ellipse;whiteSpace=wrap;html=1;aspect=fixed;fillColor=#e1d5e7;strokeColor=#000000;strokeWidth=4;" parent="32" vertex="1">
                    <mxGeometry x="-5" width="60" height="60" as="geometry"/>
                </mxCell>
                <mxCell id="34" value="" style="endArrow=none;html=1;rounded=0;strokeColor=#000000;entryX=0.5;entryY=0;entryDx=0;entryDy=0;exitX=0.5;exitY=1;exitDx=0;exitDy=0;strokeWidth=4;" parent="32" source="33" target="33" edge="1">
                    <mxGeometry width="50" height="50" relative="1" as="geometry">
                        <mxPoint x="41.11499999999978" y="-55.51500000000016" as="sourcePoint"/>
                        <mxPoint x="116.11499999999978" y="-130.51500000000016" as="targetPoint"/>
                    </mxGeometry>
                </mxCell>
                <mxCell id="35" value="" style="endArrow=none;html=1;rounded=0;strokeColor=#000000;entryX=0;entryY=0.5;entryDx=0;entryDy=0;exitX=1;exitY=0.5;exitDx=0;exitDy=0;strokeWidth=4;" parent="32" source="33" target="33" edge="1">
                    <mxGeometry width="50" height="50" relative="1" as="geometry">
                        <mxPoint x="116.11499999999978" y="-205.51500000000016" as="sourcePoint"/>
                        <mxPoint x="116.11499999999978" y="-295.5150000000001" as="targetPoint"/>
                    </mxGeometry>
                </mxCell>
                <mxCell id="36" value="I2" style="whiteSpace=wrap;html=1;aspect=fixed;strokeWidth=3;fontSize=50;fontStyle=1;fillColor=#FFFFCC;" parent="1" vertex="1">
                    <mxGeometry x="5535" y="243.01" width="90" height="90" as="geometry"/>
                </mxCell>
                <mxCell id="37" style="edgeStyle=none;html=1;exitX=0.5;exitY=0;exitDx=0;exitDy=0;entryX=0;entryY=0;entryDx=0;entryDy=0;startArrow=none;startFill=0;endArrow=classic;endFill=1;strokeColor=#000000;strokeWidth=5;" parent="1" source="38" target="29" edge="1">
                    <mxGeometry relative="1" as="geometry"/>
                </mxCell>
                <mxCell id="38" value="" style="rounded=0;whiteSpace=wrap;html=1;fontSize=50;fontColor=#000000;strokeColor=#000000;strokeWidth=6;fillColor=#000000;rotation=-180;" parent="1" vertex="1">
                    <mxGeometry x="5565" y="331.1" width="30" height="11" as="geometry"/>
                </mxCell>
                <mxCell id="39" value="W2" style="whiteSpace=wrap;html=1;aspect=fixed;fillColor=#e1d5e7;strokeWidth=3;fontSize=50;fontStyle=1" parent="1" vertex="1">
                    <mxGeometry x="5625" y="243.41" width="90" height="90" as="geometry"/>
                </mxCell>
                <mxCell id="40" style="edgeStyle=none;html=1;entryX=1;entryY=0;entryDx=0;entryDy=0;startArrow=none;startFill=0;endArrow=classic;endFill=1;strokeColor=#000000;strokeWidth=5;" parent="1" source="41" target="29" edge="1">
                    <mxGeometry relative="1" as="geometry"/>
                </mxCell>
                <mxCell id="41" value="" style="rounded=0;whiteSpace=wrap;html=1;fontSize=50;fontColor=#000000;strokeColor=#000000;strokeWidth=6;fillColor=#000000;rotation=-180;" parent="1" vertex="1">
                    <mxGeometry x="5655" y="333.41" width="30" height="11" as="geometry"/>
                </mxCell>
                <mxCell id="42" value="" style="group" parent="1" vertex="1" connectable="0">
                    <mxGeometry x="5795" y="366.81" width="80" height="80" as="geometry"/>
                </mxCell>
                <mxCell id="43" value="" style="ellipse;whiteSpace=wrap;html=1;aspect=fixed;fillColor=#67AB9F;strokeWidth=4;strokeColor=#000000;" parent="42" vertex="1">
                    <mxGeometry width="61.53846153846153" height="61.53846153846153" as="geometry"/>
                </mxCell>
                <mxCell id="44" value="" style="endArrow=none;html=1;rounded=0;strokeColor=#000000;strokeWidth=4;exitX=0;exitY=0;exitDx=0;exitDy=0;entryX=1;entryY=1;entryDx=0;entryDy=0;" parent="42" source="43" target="43" edge="1">
                    <mxGeometry width="50" height="50" relative="1" as="geometry">
                        <mxPoint x="31.56000000000131" y="63.5" as="sourcePoint"/>
                        <mxPoint x="81.56000000000131" y="1" as="targetPoint"/>
                    </mxGeometry>
                </mxCell>
                <mxCell id="45" value="" style="endArrow=none;html=1;rounded=0;strokeColor=#000000;strokeWidth=4;exitX=0;exitY=1;exitDx=0;exitDy=0;entryX=1;entryY=0;entryDx=0;entryDy=0;" parent="42" source="43" target="43" edge="1">
                    <mxGeometry width="50" height="50" relative="1" as="geometry">
                        <mxPoint x="-56.72427124745991" y="-46.855339059327434" as="sourcePoint"/>
                        <mxPoint x="0.1829682352108648" y="23.426836239393197" as="targetPoint"/>
                    </mxGeometry>
                </mxCell>
                <mxCell id="46" value="I3" style="whiteSpace=wrap;html=1;aspect=fixed;strokeWidth=3;fontSize=50;fontStyle=1;fillColor=#FFFFCC;" parent="1" vertex="1">
                    <mxGeometry x="5735" y="243.41" width="90" height="90" as="geometry"/>
                </mxCell>
                <mxCell id="47" style="edgeStyle=none;html=1;exitX=0.5;exitY=0;exitDx=0;exitDy=0;entryX=0;entryY=0;entryDx=0;entryDy=0;startArrow=none;startFill=0;endArrow=classic;endFill=1;strokeColor=#000000;strokeWidth=5;" parent="1" source="48" target="43" edge="1">
                    <mxGeometry relative="1" as="geometry"/>
                </mxCell>
                <mxCell id="48" value="" style="rounded=0;whiteSpace=wrap;html=1;fontSize=50;fontColor=#000000;strokeColor=#000000;strokeWidth=6;fillColor=#000000;rotation=-180;" parent="1" vertex="1">
                    <mxGeometry x="5765" y="331.50000000000006" width="30" height="11" as="geometry"/>
                </mxCell>
                <mxCell id="49" value="W3" style="whiteSpace=wrap;html=1;aspect=fixed;fillColor=#e1d5e7;strokeWidth=3;fontSize=50;fontStyle=1" parent="1" vertex="1">
                    <mxGeometry x="5825" y="243.81" width="90" height="90" as="geometry"/>
                </mxCell>
                <mxCell id="50" style="edgeStyle=none;html=1;entryX=1;entryY=0;entryDx=0;entryDy=0;startArrow=none;startFill=0;endArrow=classic;endFill=1;strokeColor=#000000;strokeWidth=5;" parent="1" source="51" target="43" edge="1">
                    <mxGeometry relative="1" as="geometry"/>
                </mxCell>
                <mxCell id="51" value="" style="rounded=0;whiteSpace=wrap;html=1;fontSize=50;fontColor=#000000;strokeColor=#000000;strokeWidth=6;fillColor=#000000;rotation=-180;" parent="1" vertex="1">
                    <mxGeometry x="5855" y="333.81000000000006" width="30" height="11" as="geometry"/>
                </mxCell>
                <mxCell id="52" style="edgeStyle=none;html=1;entryX=0.137;entryY=0.226;entryDx=0;entryDy=0;entryPerimeter=0;startArrow=none;startFill=0;endArrow=classic;endFill=1;strokeColor=#000000;strokeWidth=5;" parent="1" source="29" target="33" edge="1">
                    <mxGeometry relative="1" as="geometry"/>
                </mxCell>
                <mxCell id="53" style="edgeStyle=none;html=1;entryX=1;entryY=0;entryDx=0;entryDy=0;startArrow=none;startFill=0;endArrow=classic;endFill=1;strokeColor=#000000;strokeWidth=5;" parent="1" source="43" target="33" edge="1">
                    <mxGeometry relative="1" as="geometry"/>
                </mxCell>
                <mxCell id="54" value="" style="group" parent="1" vertex="1" connectable="0">
                    <mxGeometry x="5495" y="590.9100000000001" width="60" height="60" as="geometry"/>
                </mxCell>
                <mxCell id="55" value="" style="ellipse;whiteSpace=wrap;html=1;aspect=fixed;fillColor=#e1d5e7;strokeColor=#000000;strokeWidth=4;" parent="54" vertex="1">
                    <mxGeometry x="-5" width="60" height="60" as="geometry"/>
                </mxCell>
                <mxCell id="56" value="" style="endArrow=none;html=1;rounded=0;strokeColor=#000000;entryX=0.5;entryY=0;entryDx=0;entryDy=0;exitX=0.5;exitY=1;exitDx=0;exitDy=0;strokeWidth=4;" parent="54" source="55" target="55" edge="1">
                    <mxGeometry width="50" height="50" relative="1" as="geometry">
                        <mxPoint x="41.11499999999978" y="-55.51500000000016" as="sourcePoint"/>
                        <mxPoint x="116.11499999999978" y="-130.51500000000016" as="targetPoint"/>
                    </mxGeometry>
                </mxCell>
                <mxCell id="57" value="" style="endArrow=none;html=1;rounded=0;strokeColor=#000000;entryX=0;entryY=0.5;entryDx=0;entryDy=0;exitX=1;exitY=0.5;exitDx=0;exitDy=0;strokeWidth=4;" parent="54" source="55" target="55" edge="1">
                    <mxGeometry width="50" height="50" relative="1" as="geometry">
                        <mxPoint x="116.11499999999978" y="-205.51500000000016" as="sourcePoint"/>
                        <mxPoint x="116.11499999999978" y="-295.5150000000001" as="targetPoint"/>
                    </mxGeometry>
                </mxCell>
                <mxCell id="58" style="edgeStyle=none;html=1;entryX=0;entryY=0;entryDx=0;entryDy=0;startArrow=none;startFill=0;endArrow=classic;endFill=1;strokeColor=#000000;strokeWidth=5;" parent="1" source="7" target="55" edge="1">
                    <mxGeometry relative="1" as="geometry"/>
                </mxCell>
                <mxCell id="59" style="edgeStyle=none;html=1;entryX=1;entryY=0;entryDx=0;entryDy=0;startArrow=none;startFill=0;endArrow=classic;endFill=1;strokeColor=#000000;strokeWidth=5;" parent="1" source="33" target="55" edge="1">
                    <mxGeometry relative="1" as="geometry"/>
                </mxCell>
                <mxCell id="60" value="c = 0" style="text;html=1;strokeColor=none;fillColor=none;align=center;verticalAlign=middle;whiteSpace=wrap;rounded=0;fontSize=60;fontStyle=1" parent="1" vertex="1">
                    <mxGeometry x="5165" y="194" width="145" height="20" as="geometry"/>
                </mxCell>
                <mxCell id="61" value="c = 1" style="text;html=1;strokeColor=none;fillColor=none;align=center;verticalAlign=middle;whiteSpace=wrap;rounded=0;fontSize=60;fontStyle=1" parent="1" vertex="1">
                    <mxGeometry x="5360" y="194" width="150" height="20" as="geometry"/>
                </mxCell>
                <mxCell id="62" value="c = 2" style="text;html=1;strokeColor=none;fillColor=none;align=center;verticalAlign=middle;whiteSpace=wrap;rounded=0;fontSize=60;fontStyle=1" parent="1" vertex="1">
                    <mxGeometry x="5565" y="194" width="155" height="20" as="geometry"/>
                </mxCell>
                <mxCell id="63" value="c = 3" style="text;html=1;strokeColor=none;fillColor=none;align=center;verticalAlign=middle;whiteSpace=wrap;rounded=0;fontSize=60;fontStyle=1" parent="1" vertex="1">
                    <mxGeometry x="5760" y="194" width="140" height="20" as="geometry"/>
                </mxCell>
            </root>
        </mxGraphModel>
    </diagram>
</mxfile>